<svg xmlns="http://www.w3.org/2000/svg" viewBox="0 0 100 100" role="img"><rect x="0" y="0" width="100" height="100" fill="#012169"/><rect x="0" y="0" width="48" height="42" fill="#012169"/><path d="M0 0 48 42M48 0 0 42" stroke="#ffffff" stroke-width="9.24"/><path d="M0 0 48 42M48 0 0 42" stroke="#c8102e" stroke-width="4.2"/><rect x="0" y="17.22" width="48" height="7.56" fill="#ffffff"/><rect x="19.68" y="0" width="8.64" height="42" fill="#ffffff"/><rect x="0" y="19.299" width="48" height="3.4019999999999997" fill="#c8102e"/><rect x="22.056" y="0" width="3.8880000000000003" height="42" fill="#c8102e"/><path d="M24,62L26.468698059628387,68.60212862362522L33.510565162951536,68.90983005625053L27.994437368439645,73.29787137637479L29.877852522924734,80.09016994374947L24,76.2L18.12214747707527,80.09016994374947L20.005562631560355,73.29787137637479L14.489434837048464,68.90983005625053L21.531301940371613,68.60212862362522Z" fill="#ffffff"/><path d="M70,17L71.2343490298142,20.30106431181261L74.75528258147577,20.454915028125264L71.99721868421982,22.64893568818739L72.93892626146237,26.045084971874736L70,24.1L67.06107373853763,26.045084971874736L68.00278131578018,22.64893568818739L65.24471741852423,20.454915028125264L68.7656509701858,20.30106431181261Z" fill="#ffffff"/><path d="M83,37L84.2343490298142,40.30106431181261L87.75528258147577,40.454915028125264L84.99721868421982,42.64893568818739L85.93892626146237,46.045084971874736L83,44.1L80.06107373853763,46.045084971874736L81.00278131578018,42.64893568818739L78.24471741852423,40.454915028125264L81.7656509701858,40.30106431181261Z" fill="#ffffff"/><path d="M70,57L71.2343490298142,60.30106431181261L74.75528258147577,60.454915028125264L71.99721868421982,62.64893568818739L72.93892626146237,66.04508497187474L70,64.1L67.06107373853763,66.04508497187474L68.00278131578018,62.64893568818739L65.24471741852423,60.454915028125264L68.7656509701858,60.30106431181261Z" fill="#ffffff"/><path d="M56,43L57.2343490298142,46.30106431181261L60.75528258147577,46.454915028125264L57.997218684219824,48.64893568818739L58.93892626146236,52.045084971874736L56,50.1L53.06107373853764,52.045084971874736L54.002781315780176,48.64893568818739L51.24471741852423,46.454915028125264L54.7656509701858,46.30106431181261Z" fill="#ffffff"/><path d="M83,74L83.98747922385135,76.64085144945008L86.80422606518061,76.76393202250021L84.59777494737585,78.51914855054991L85.3511410091699,81.23606797749979L83,79.68L80.6488589908301,81.23606797749979L81.40222505262415,78.51914855054991L79.19577393481939,76.76393202250021L82.01252077614865,76.64085144945008Z" fill="#ffffff"/></svg>
