<svg xmlns="http://www.w3.org/2000/svg" viewBox="0 0 100 100" role="img"><rect x="0" y="0" width="100" height="100" fill="#002395"/><path d="M42 0 100 0 100 100Z" fill="#fecb00"/><path d="M34,3L34.98747922385135,5.640851449450088L37.804226065180615,5.76393202250021L35.59777494737586,7.519148550549912L36.35114100916989,10.23606797749979L34,8.68L31.648858990830107,10.23606797749979L32.40222505262414,7.519148550549912L30.195773934819385,5.763932022500211L33.01252077614865,5.640851449450088Z" fill="#ffffff"/><path d="M42,16L42.98747922385135,18.64085144945009L45.804226065180615,18.76393202250021L43.59777494737586,20.51914855054991L44.35114100916989,23.23606797749979L42,21.68L39.64885899083011,23.23606797749979L40.40222505262414,20.51914855054991L38.195773934819385,18.76393202250021L41.01252077614865,18.64085144945009Z" fill="#ffffff"/><path d="M50,29L50.98747922385135,31.64085144945009L53.804226065180615,31.76393202250021L51.59777494737586,33.519148550549914L52.35114100916989,36.236067977499786L50,34.68L47.64885899083011,36.236067977499786L48.40222505262414,33.519148550549914L46.195773934819385,31.76393202250021L49.01252077614865,31.64085144945009Z" fill="#ffffff"/><path d="M58,42L58.98747922385135,44.64085144945009L61.804226065180615,44.763932022500214L59.59777494737586,46.519148550549914L60.35114100916989,49.236067977499786L58,47.68L55.64885899083011,49.236067977499786L56.40222505262414,46.519148550549914L54.195773934819385,44.763932022500214L57.01252077614865,44.64085144945009Z" fill="#ffffff"/><path d="M66,55L66.98747922385135,57.64085144945009L69.80422606518061,57.763932022500214L67.59777494737585,59.519148550549914L68.3511410091699,62.236067977499786L66,60.68L63.64885899083011,62.236067977499786L64.40222505262415,59.519148550549914L62.195773934819385,57.763932022500214L65.01252077614865,57.64085144945009Z" fill="#ffffff"/><path d="M74,68L74.98747922385135,70.64085144945008L77.80422606518061,70.76393202250021L75.59777494737585,72.51914855054991L76.3511410091699,75.23606797749979L74,73.68L71.6488589908301,75.23606797749979L72.40222505262415,72.51914855054991L70.19577393481939,70.76393202250021L73.01252077614865,70.64085144945008Z" fill="#ffffff"/><path d="M82,81L82.98747922385135,83.64085144945008L85.80422606518061,83.76393202250021L83.59777494737585,85.51914855054991L84.3511410091699,88.23606797749979L82,86.68L79.6488589908301,88.23606797749979L80.40222505262415,85.51914855054991L78.19577393481939,83.76393202250021L81.01252077614865,83.64085144945008Z" fill="#ffffff"/></svg>
