<svg xmlns="http://www.w3.org/2000/svg" viewBox="0 0 100 100" role="img"><rect x="0" y="0" width="100" height="100" fill="#003893"/><rect x="0" y="50" width="100" height="20" fill="#ffffff"/><rect x="0" y="57" width="100" height="6" fill="#cf2027"/><path d="M34,40L34.740609417888514,41.98063858708757L36.85316954888546,42.07294901687516L35.19833121053189,43.389361412912436L35.76335575687742,45.42705098312484L34,44.26L32.23664424312258,45.42705098312484L32.80166878946811,43.389361412912436L31.14683045111454,42.07294901687516L33.259390582111486,41.98063858708757Z" fill="#f7d116"/><path d="M42.8167787843871,42.864745084375784L43.55738820227561,44.84538367146335L45.66994833327256,44.93769410125094L44.01510999491899,46.25410649728822L44.58013454126451,48.29179606750063L42.8167787843871,47.12474508437578L41.05342302750968,48.29179606750063L41.61844757385521,46.25410649728822L39.963609235501636,44.93769410125094L42.07616936649858,44.84538367146335Z" fill="#f7d116"/><path d="M48.265847744427305,50.36474508437579L49.00645716231582,52.34538367146336L51.119017293312766,52.43769410125095L49.464178954959195,53.75410649728823L50.02920350130472,55.791796067500634L48.265847744427305,54.62474508437579L46.50249198754989,55.791796067500634L47.067516533895414,53.75410649728823L45.412678195541844,52.43769410125095L47.52523832653879,52.34538367146336Z" fill="#f7d116"/><path d="M48.265847744427305,59.63525491562421L49.00645716231582,61.61589350271178L51.119017293312766,61.708203932499366L49.464178954959195,63.024616328536645L50.02920350130472,65.06230589874905L48.265847744427305,63.89525491562421L46.50249198754989,65.06230589874905L47.067516533895414,63.024616328536645L45.412678195541844,61.708203932499366L47.52523832653879,61.61589350271178Z" fill="#f7d116"/><path d="M42.8167787843871,67.13525491562422L43.55738820227561,69.11589350271178L45.66994833327256,69.20820393249937L44.01510999491899,70.52461632853665L44.58013454126451,72.56230589874906L42.8167787843871,71.39525491562422L41.05342302750968,72.56230589874906L41.61844757385521,70.52461632853665L39.963609235501636,69.20820393249937L42.07616936649858,69.11589350271178Z" fill="#f7d116"/><path d="M34,70L34.740609417888514,71.98063858708757L36.85316954888546,72.07294901687516L35.19833121053189,73.38936141291244L35.76335575687742,75.42705098312484L34,74.26L32.23664424312258,75.42705098312484L32.80166878946811,73.38936141291244L31.14683045111454,72.07294901687516L33.259390582111486,71.98063858708757Z" fill="#f7d116"/><path d="M25.183221215612903,67.13525491562422L25.92383063350142,69.11589350271178L28.036390764498364,69.20820393249937L26.381552426144797,70.52461632853665L26.946576972490323,72.56230589874906L25.183221215612903,71.39525491562422L23.419865458735483,72.56230589874906L23.98489000508101,70.52461632853665L22.330051666727442,69.20820393249937L24.442611797724386,69.11589350271178Z" fill="#f7d116"/><path d="M19.734152255572695,59.635254915624216L20.474761673461213,61.615893502711785L22.587321804458156,61.70820393249937L20.93248346610459,63.02461632853665L21.497508012450115,65.06230589874906L19.734152255572695,63.895254915624214L17.970796498695275,65.06230589874906L18.5358210450408,63.02461632853665L16.880982706687234,61.70820393249937L18.993542837684178,61.615893502711785Z" fill="#f7d116"/><path d="M19.734152255572695,50.36474508437579L20.474761673461213,52.34538367146336L22.587321804458156,52.43769410125095L20.93248346610459,53.75410649728823L21.497508012450115,55.791796067500634L19.734152255572695,54.62474508437579L17.970796498695275,55.791796067500634L18.5358210450408,53.75410649728823L16.880982706687234,52.43769410125095L18.993542837684178,52.34538367146336Z" fill="#f7d116"/><path d="M25.183221215612903,42.86474508437579L25.92383063350142,44.84538367146336L28.036390764498364,44.93769410125095L26.381552426144797,46.25410649728823L26.946576972490323,48.291796067500634L25.183221215612903,47.12474508437579L23.419865458735483,48.291796067500634L23.98489000508101,46.25410649728823L22.330051666727442,44.93769410125095L24.442611797724386,44.84538367146336Z" fill="#f7d116"/></svg>
