<svg xmlns="http://www.w3.org/2000/svg" viewBox="0 0 100 100" role="img"><rect x="0" y="0" width="100" height="33.333333333333336" fill="#ff0000"/><rect x="0" y="33.333333333333336" width="100" height="33.333333333333336" fill="#ffffff"/><rect x="0" y="66.66666666666667" width="100" height="33.333333333333336" fill="#171796"/><rect x="34" y="34" width="8" height="8" fill="#ff0000"/><rect x="42" y="34" width="8" height="8" fill="#ffffff"/><rect x="50" y="34" width="8" height="8" fill="#ff0000"/><rect x="58" y="34" width="8" height="8" fill="#ffffff"/><rect x="34" y="42" width="8" height="8" fill="#ffffff"/><rect x="42" y="42" width="8" height="8" fill="#ff0000"/><rect x="50" y="42" width="8" height="8" fill="#ffffff"/><rect x="58" y="42" width="8" height="8" fill="#ff0000"/><rect x="34" y="50" width="8" height="8" fill="#ff0000"/><rect x="42" y="50" width="8" height="8" fill="#ffffff"/><rect x="50" y="50" width="8" height="8" fill="#ff0000"/><rect x="58" y="50" width="8" height="8" fill="#ffffff"/><rect x="34" y="58" width="8" height="8" fill="#ffffff"/><rect x="42" y="58" width="8" height="8" fill="#ff0000"/><rect x="50" y="58" width="8" height="8" fill="#ffffff"/><rect x="58" y="58" width="8" height="8" fill="#ff0000"/></svg>
