<svg xmlns="http://www.w3.org/2000/svg" viewBox="0 0 100 100" role="img"><rect x="0" y="0" width="100" height="100" fill="#00247d"/><rect x="0" y="0" width="48" height="42" fill="#012169"/><path d="M0 0 48 42M48 0 0 42" stroke="#ffffff" stroke-width="9.24"/><path d="M0 0 48 42M48 0 0 42" stroke="#c8102e" stroke-width="4.2"/><rect x="0" y="17.22" width="48" height="7.56" fill="#ffffff"/><rect x="19.68" y="0" width="8.64" height="42" fill="#ffffff"/><rect x="0" y="19.299" width="48" height="3.4019999999999997" fill="#c8102e"/><rect x="22.056" y="0" width="3.8880000000000003" height="42" fill="#c8102e"/><path d="M68,22L69.48121883577703,25.961277174175134L73.70633909777092,26.145898033750317L70.39666242106378,28.778722825824868L71.52671151375483,32.85410196624969L68,30.52L64.47328848624517,32.85410196624969L65.60333757893622,28.778722825824868L62.29366090222908,26.145898033750317L66.51878116422297,25.961277174175134Z" fill="#cc142b" stroke="#ffffff" stroke-width="3"/><path d="M84,45L85.2343490298142,48.30106431181261L88.75528258147577,48.454915028125264L85.99721868421982,50.64893568818739L86.93892626146237,54.045084971874736L84,52.1L81.06107373853763,54.045084971874736L82.00278131578018,50.64893568818739L79.24471741852423,48.454915028125264L82.7656509701858,48.30106431181261Z" fill="#cc142b" stroke="#ffffff" stroke-width="3"/><path d="M68,67L69.2343490298142,70.30106431181261L72.75528258147577,70.45491502812526L69.99721868421982,72.6489356881874L70.93892626146237,76.04508497187474L68,74.1L65.06107373853763,76.04508497187474L66.00278131578018,72.6489356881874L63.24471741852423,70.45491502812527L66.7656509701858,70.30106431181261Z" fill="#cc142b" stroke="#ffffff" stroke-width="3"/><path d="M52,53L53.2343490298142,56.30106431181261L56.75528258147577,56.454915028125264L53.997218684219824,58.64893568818739L54.93892626146236,62.045084971874736L52,60.1L49.06107373853764,62.045084971874736L50.002781315780176,58.64893568818739L47.24471741852423,56.454915028125264L50.7656509701858,56.30106431181261Z" fill="#cc142b" stroke="#ffffff" stroke-width="3"/></svg>
